<?xml version="1.0" encoding="UTF-8" standalone="no"?>
<!DOCTYPE svg PUBLIC "-//W3C//DTD SVG 1.1//EN" "http://www.w3.org/Graphics/SVG/1.1/DTD/svg11.dtd">
<svg width="100%" height="100%" viewBox="0 0 256 256" version="1.1" xmlns="http://www.w3.org/2000/svg" xmlns:xlink="http://www.w3.org/1999/xlink" xml:space="preserve" xmlns:serif="http://www.serif.com/" style="fill-rule:evenodd;clip-rule:evenodd;stroke-linecap:round;stroke-linejoin:round;stroke-miterlimit:1.5;">
    <path d="M25.384,228.366C26.561,227.77 38.293,216.375 46.004,212.583C56.092,207.621 65.398,211.745 68.966,212.738C74.031,214.147 79.302,216.452 84.344,218.417C88.599,220.075 98,221.795 105.142,222.611C106.651,222.783 135.685,220.771 145.838,216.766C151.237,214.636 159.682,210.807 164.012,207.127C168.754,203.098 187.616,184.511 189.97,181.816C192.11,179.365 193.521,176.468 195.373,173.867C201.064,165.877 206.194,157.918 208.937,148.354C209.489,146.429 211.962,137.456 212.548,135.565C214.879,128.037 216.521,123.691 217.35,114.393C217.966,107.487 215.966,99.048 215.966,96.349C215.966,95.798 216.067,95.212 215.935,94.639C213.041,82.08 212.868,72.051 212.648,70.204C212.115,65.713 212.088,59.65 212.648,55.135C213.468,48.53 213.664,40.93 216.713,34.799C219.022,30.154 221.671,26.365 224.835,22.319C226.514,20.172 230.582,14.842 233.714,14.842C233.944,14.842 233.254,14.842 233.024,14.842C232.6,14.842 232.047,15.133 231.634,15.281C230.36,15.738 229.139,16.356 227.856,16.707C223.666,17.852 219.769,19.96 215.364,20.897C208.178,22.425 199.811,25.232 192.208,24.279C186.708,23.589 149.805,27.699 145.354,28.462C128.668,31.322 106.516,40.906 103.932,42.19C91.593,48.325 79.991,57.278 70.252,66.999C66.938,70.306 52.027,85.071 46.633,98.693C41.981,110.441 35.61,131.161 34.309,144.101C33.792,149.245 33.916,154.851 33.916,160.036C33.916,165.858 37.797,180.588 37.952,181.206C38.584,183.734 39.589,187.297 40.45,189.726C42.111,194.414 44.441,198.644 44.76,198.274C45.443,197.482 45.482,204.011 41.979,206.942C37.36,210.807 31.555,213.835 27.31,218.051C26.353,219.001 24.621,219.403 23.543,220.245C20.6,222.543 10.44,233.742 9.855,234.898C9.737,235.131 13.962,239.806 14.381,239.382C16.883,236.846 21.994,230.084 25.384,228.366Z" style="fill:rgb(40,201,117);stroke:black;stroke-width:5.33px;"/>
    <path d="M11.821,236.171C15.59,236.171 21.019,227.368 24.002,225.019C29.903,220.375 34.367,216.886 40.183,212.308C44.724,208.733 49.372,205.289 53.801,201.593C63.597,193.417 72.063,183.882 81.337,175.115C86.014,170.694 91.143,166.397 95.332,161.596C105.424,150.031 113.914,136.693 124.562,125.901C127.244,123.183 129.413,117.809 131.373,114.324C134.011,109.634 136.966,105.152 139.595,100.498C140.763,98.43 143.464,96.622 144.179,94.331C146.296,87.552 149.219,80.88 153.669,75.196C154.935,73.58 156.808,72.793 158.067,71.181C166.952,59.799 178.187,48.311 190.885,41.876C193.506,40.548 196.34,39.003 199.057,37.627C199.702,37.3 200.809,36.251 201.45,36.251" style="fill:none;stroke:black;stroke-width:5.33px;"/>
    <path d="M67.073,186.497C67.073,181.724 67.073,176.951 67.073,172.178C67.073,170.199 67.548,167.547 67.073,165.635C65.807,160.539 65.881,153.05 66.568,147.676C67.13,143.294 66.971,138.335 68.038,134.047C68.615,131.726 67.397,128.918 68.038,126.616C68.618,124.529 69.584,121.046 69.584,118.953" style="fill:none;stroke:black;stroke-width:5.33px;"/>
    <path d="M81.513,176.042C97.772,176.042 114.248,174.89 129.732,169.63C136.629,167.288 142.891,164.755 149.434,161.899C151.677,160.921 153.937,159.459 156.259,158.875C157.167,158.647 158.123,157.353 158.999,157.353" style="fill:none;stroke:black;stroke-width:5.33px;"/>
    <path d="M105.602,146.444C105.602,143.429 104.14,140.527 103.768,137.558C103.115,132.327 101.896,127.227 101.27,121.939C100.839,118.295 100.988,113.83 101.439,110.199C101.621,108.73 102.935,106.872 102.766,105.564C102.013,99.73 100.593,91.894 101.859,85.975C102.701,82.04 104.975,78.03 104.975,74.039" style="fill:none;stroke:black;stroke-width:5.33px;"/>
    <path d="M133.415,114.022C138.742,114.022 142.552,111.853 147.112,109.235C151.509,106.711 156.427,105.057 160.872,102.707C164.63,100.719 170.141,99.946 173.325,97.533C175.943,95.549 179.67,93.39 182.634,91.888C183.504,91.448 184.445,89.602 185.447,89.602" style="fill:none;stroke:black;stroke-width:5.33px;"/>
    <path d="M146.497,82.282C146.497,72.858 147.909,63.987 147.909,54.565C147.909,51.691 147.864,49.062 148.541,46.343C148.841,45.134 151.102,42.146 149.788,43.442" style="fill:none;stroke:black;stroke-width:5.33px;"/>
</svg>
