<?xml version="1.0" encoding="UTF-8" standalone="no"?>
<!DOCTYPE svg PUBLIC "-//W3C//DTD SVG 1.1//EN" "http://www.w3.org/Graphics/SVG/1.1/DTD/svg11.dtd">
<svg width="100%" height="100%" viewBox="0 0 256 256" version="1.1" xmlns="http://www.w3.org/2000/svg" xmlns:xlink="http://www.w3.org/1999/xlink" xml:space="preserve" xmlns:serif="http://www.serif.com/" style="fill-rule:evenodd;clip-rule:evenodd;stroke-linejoin:round;stroke-miterlimit:1.41421;">
    <g transform="matrix(1.23519,0,0,1.08709,-23.9609,-13.3598)">
        <path d="M38.604,24.497C28.979,44.748 26.901,63.78 26.5,68.889C26.905,69.677 27.093,70.558 27.045,71.443C29.87,76.954 41.37,99.332 42.599,101.724C42.682,101.854 42.76,101.989 42.831,102.127C43.64,103.395 49.514,113.878 54.465,122.708C58.96,130.11 59.764,139.628 56.588,147.865C54.038,154.488 51.493,161.09 50.947,162.507C50.854,162.683 50.772,162.864 50.7,163.049C49.935,164.495 45.07,174.715 41.461,182.286C38.915,187.282 38.242,193.23 39.591,198.796C40.98,204.072 42.51,209.735 42.626,210.25C46.282,224.407 54.251,229.7 54.872,230.506C66.367,245.442 78.792,235.45 82.539,236.982C83.029,237.003 109.17,238.355 120.236,238.9C123.087,239.029 125.938,238.676 128.697,237.854C136.473,235.585 152.814,230.818 160.174,228.652C162.308,228.014 164.349,227.025 166.231,225.716C169.946,223.171 176.426,218.733 181.161,215.481C184.798,212.953 187.864,209.491 190.113,205.374C196.964,192.828 211.531,165.809 212.513,162.558C212.494,162.131 211.94,145.375 211.541,134.259C211.326,128.881 209.065,123.875 205.346,120.539C199.094,114.506 190.125,105.802 189.973,105.671C189.191,104.702 186.49,98.413 183.948,92.462C182.39,90.002 181.964,86.844 182.802,83.968C183.641,81.091 185.642,78.846 188.184,77.93C193.421,75.878 199.158,73.566 202.984,72.026C205.629,71.076 207.861,69.024 209.231,66.283C210.682,63.07 212.555,58.741 214.3,54.672C217.526,47.991 217.301,39.846 213.711,33.408C213.36,32.867 213.01,32.322 212.663,31.781C209.338,25.832 203.777,21.964 197.601,21.305C193.172,20.822 188.92,20.368 187.783,20.247C187.586,20.25 187.388,20.24 187.192,20.219C184.184,20.256 159.186,20.561 153.56,20.63C153.551,20.631 153.542,20.633 153.534,20.637C152.901,20.783 146.103,16.687 140.5,21.306C137.625,23.698 134.097,24.855 130.542,24.57C121.303,23.853 103.334,35.236 99.345,36.019C98.864,35.939 84.661,33.802 76.305,32.498C73.397,32.026 70.684,30.565 68.521,28.307C61.795,21.477 46.148,8.623 38.604,24.497Z" style="fill:rgb(198,0,0);"/>
    </g>
    <g transform="matrix(1.50516,0,0,1.82203,4.57464,-31.1863)">
        <path d="M22.894,28.072C23.69,24.416 27.401,21.679 31.888,21.439C44.623,20.759 69.801,19.414 80.015,18.869C82.793,18.72 85.468,19.76 87.099,21.623C93.45,28.872 109.488,47.177 114.252,52.614C115.147,53.636 115.802,54.787 116.183,56.008C118.687,64.037 128.499,95.49 128.499,95.49C128.499,95.49 140.66,112.419 148.191,122.904C151.638,127.702 150.812,133.807 146.167,137.858C139.547,143.633 131.141,150.965 131.141,150.965C131.141,150.965 102.095,154.425 88.335,156.064C84.105,156.568 79.955,154.798 78.002,151.658C70.198,139.105 51.099,108.385 51.099,108.385C51.099,108.385 32.141,102.345 21.445,98.937C17.185,97.58 14.45,94.127 14.651,90.359C15.233,79.412 16.37,58.052 16.37,58.052C16.37,58.052 20.641,38.423 22.894,28.072Z" style="fill:rgb(0,255,97);"/>
    </g>
    <g transform="matrix(4.72144,0,0,6.13585,-332.092,-400.96)">
        <ellipse cx="92.2" cy="75.857" rx="6.298" ry="4.88" style="fill:rgb(53,46,189);"/>
    </g>
    <g transform="matrix(4.72144,0,0,6.13585,-250.462,-302.956)">
        <ellipse cx="92.2" cy="75.857" rx="6.298" ry="4.88" style="fill:rgb(53,46,189);"/>
    </g>
    <g transform="matrix(4.72144,0,0,6.13585,-342.439,-313.957)">
        <ellipse cx="92.2" cy="75.857" rx="6.298" ry="4.88" style="fill:rgb(53,46,189);"/>
    </g>
</svg>
